# xmcd
#
# Track frame offsets:
#	150
#	26275
#	45125
#	69950
#	86662
#	106987
#	132450
#	152050
#	176512
#	199162
#	220600
#	242362
#
# Disc length: 3505 seconds
#
# Revision: 1
# Processed by: cddbd v1.5.2PL0 Copyright (c) Steve Scherf et al.
# Submitted via: EZCDAudioConverter 8.0.2.1
#
DISCID=8f0daf0c
DTITLE=Elvis Phương, Kiều Nga - Vết Thù Trên Lưng Ngựa Hoang
DYEAR=1992
DGENRE=Retrospective Pop
TTITLE0=Elvis Phương - Mười năm tình cũ
TTITLE1=Elvis Phương, Kiều Nga - Tình nghĩa đôi ta chỉ thế thôi
TTITLE2=Elvis Phương - Tương tư 4
TTITLE3=Elvis Phương - Chiều qua phố
TTITLE4=Kiều Nga - Như giọt sầu rơi
TTITLE5=Elvis Phương - Yêu em vào cõi chết
TTITLE6=Elvis Phương - Vết Thù Trên Lưng Ngựa Hoang
TTITLE7=Kiều Nga - Chỉ có em
TTITLE8=Elvis Phương - Cỏ úa
TTITLE9=Elvis Phương, Kiều Nga - Lối về xóm nhỏ
TTITLE10=Elvis Phương - Giọt lệ sầu
TTITLE11=Elvis Phương - Hãy khóc đi em
EXTD=
EXTT0=
EXTT1=
EXTT2=
EXTT3=
EXTT4=
EXTT5=
EXTT6=
EXTT7=
EXTT8=
EXTT9=
EXTT10=
EXTT11=
PLAYORDER=
